<svg width="200" height="201" viewBox="0 0 200 201" fill="none" xmlns="http://www.w3.org/2000/svg">
<path d="M84.4822 55.668C86.0981 55.6667 87.6919 56.0429 89.1358 56.7663C90.5798 57.4897 91.8339 58.5403 92.7976 59.8339L98.7695 52.0465L80.851 38.3784L67.1464 56.2492L74.8692 62.1401C75.6421 60.2285 76.9702 58.5909 78.6831 57.4376C80.396 56.2844 82.4155 55.6681 84.4822 55.668Z" fill="#699CFF"/>
<path d="M168.476 122.138H197.86C199.088 126.794 199.229 131.67 198.272 136.389C197.315 141.109 195.285 145.546 192.338 149.36C189.391 153.174 185.607 156.264 181.275 158.39C176.943 160.517 172.18 161.624 167.353 161.626C166.491 161.626 165.638 161.592 164.794 161.523V144.246C164.795 143.417 164.591 142.602 164.201 141.87C163.811 141.139 163.247 140.515 162.557 140.052C161.868 139.59 161.075 139.304 160.249 139.22C159.423 139.135 158.588 139.255 157.819 139.568V132.77C157.819 131.374 158.094 129.991 158.63 128.701C159.165 127.411 159.95 126.239 160.939 125.252C161.929 124.265 163.104 123.482 164.397 122.947C165.69 122.413 167.076 122.138 168.476 122.138Z" fill="#699CFF"/>
<path d="M19.0494 132.163L8.82213 124.362L1 134.562L11.2273 142.363L19.0494 132.163Z" fill="#699CFF"/>
<path d="M25.2384 152.601L16.0306 83.7569L150.89 62.7154L160.098 131.56L25.2384 152.601Z" fill="#F1F1F1" stroke="#111111" stroke-width="0.563637"/>
<path d="M148.055 68.9486L20.3833 88.8687L28.1279 146.774L155.8 126.854L148.055 68.9486Z" fill="white"/>
<path d="M16.1929 85.4108L15.4366 79.7559L150.296 58.7144L151.052 64.3693L16.1929 85.4108Z" fill="#E5E5E5" stroke="#111111" stroke-width="0.563637"/>
<path d="M19.885 83.67C20.4801 83.67 20.9625 83.149 20.9625 82.5064C20.9625 81.8637 20.4801 81.3428 19.885 81.3428C19.2899 81.3428 18.8075 81.8637 18.8075 82.5064C18.8075 83.149 19.2899 83.67 19.885 83.67Z" fill="white"/>
<path d="M23.9322 83.0396C24.5273 83.0396 25.0097 82.5187 25.0097 81.876C25.0097 81.2334 24.5273 80.7124 23.9322 80.7124C23.3372 80.7124 22.8548 81.2334 22.8548 81.876C22.8548 82.5187 23.3372 83.0396 23.9322 83.0396Z" fill="white"/>
<path d="M27.9795 82.4078C28.5746 82.4078 29.057 81.8868 29.057 81.2442C29.057 80.6015 28.5746 80.0806 27.9795 80.0806C27.3844 80.0806 26.902 80.6015 26.902 81.2442C26.902 81.8868 27.3844 82.4078 27.9795 82.4078Z" fill="white"/>
<path d="M45.6985 162.096V92.5367H181.957V162.096H45.6985Z" fill="#E6E6E6" stroke="#111111" stroke-width="0.563637"/>
<path d="M45.6608 94.1797V88.5065H181.878V94.1797H45.6608Z" fill="#E5E5E5" stroke="#111111" stroke-width="0.604864"/>
<path d="M49.6777 93.0597C50.2727 93.0597 50.7552 92.5387 50.7552 91.896C50.7552 91.2534 50.2727 90.7324 49.6777 90.7324C49.0826 90.7324 48.6002 91.2534 48.6002 91.896C48.6002 92.5387 49.0826 93.0597 49.6777 93.0597Z" fill="white"/>
<path d="M53.7669 93.0597C54.3619 93.0597 54.8444 92.5387 54.8444 91.896C54.8444 91.2534 54.3619 90.7324 53.7669 90.7324C53.1718 90.7324 52.6894 91.2534 52.6894 91.896C52.6894 92.5387 53.1718 93.0597 53.7669 93.0597Z" fill="white"/>
<path d="M57.8564 93.0597C58.4514 93.0597 58.9338 92.5387 58.9338 91.896C58.9338 91.2534 58.4514 90.7324 57.8564 90.7324C57.2613 90.7324 56.7789 91.2534 56.7789 91.896C56.7789 92.5387 57.2613 93.0597 57.8564 93.0597Z" fill="white"/>
<path d="M49.6106 156.493V98.5504H178.044V156.493H49.6106Z" fill="white" stroke="#111111" stroke-width="0.563637"/>
<ellipse cx="150.546" cy="121.986" rx="7.0611" ry="7.08383" fill="#699CFF"/>
<path d="M161.722 140.173C161.722 138.846 161.434 137.531 160.875 136.305C160.316 135.078 159.497 133.964 158.465 133.026C157.432 132.087 156.206 131.342 154.857 130.834C153.508 130.326 152.062 130.065 150.601 130.065C149.141 130.065 147.695 130.326 146.346 130.834C144.997 131.342 143.771 132.087 142.738 133.026C141.705 133.964 140.886 135.078 140.327 136.305C139.769 137.531 139.481 138.846 139.481 140.173L150.601 140.173H161.722Z" fill="#699CFF"/>
<path d="M84.3557 140.576H66.1881V142.051H84.3557V140.576Z" fill="#E6E6E6"/>
<path d="M86.6213 144.409H63.7573V145.884H86.6213V144.409Z" fill="#E6E6E6"/>
<path d="M83.7386 118.174H65.756V132.139H83.7386V118.174Z" fill="#699CFF"/>
<path d="M85.5369 131.043H68.2736C68.0829 131.043 67.9 130.959 67.7652 130.809C67.6303 130.659 67.5545 130.457 67.5543 130.245V117.077C67.5545 116.866 67.6303 116.663 67.7652 116.513C67.9 116.364 68.0829 116.28 68.2736 116.279H85.5369C85.7276 116.28 85.9105 116.364 86.0453 116.513C86.1802 116.663 86.256 116.866 86.2562 117.077V130.245C86.256 130.457 86.1802 130.659 86.0453 130.809C85.9105 130.959 85.7276 131.043 85.5369 131.043ZM68.2736 117.077V130.245H85.5374L85.5369 117.077H68.2736Z" fill="#3F3D56"/>
<path d="M83.5586 116.578H82.8393C82.8393 114.832 82.2141 113.157 81.1012 111.923C79.9883 110.688 78.4789 109.994 76.905 109.994C75.3311 109.994 73.8217 110.688 72.7088 111.923C71.596 113.157 70.9707 114.832 70.9707 116.578H70.2514C70.2514 114.62 70.9524 112.743 72.2002 111.358C73.448 109.974 75.1404 109.196 76.905 109.196C78.6696 109.196 80.362 109.974 81.6098 111.358C82.8576 112.743 83.5586 114.62 83.5586 116.578Z" fill="#3F3D56"/>
<path d="M78.704 122.064C78.7043 121.717 78.6229 121.375 78.4677 121.074C78.3126 120.772 78.0891 120.52 77.8193 120.344C77.5496 120.167 77.243 120.072 76.9298 120.067C76.6167 120.062 76.3078 120.148 76.0339 120.317C75.7599 120.485 75.5303 120.73 75.3679 121.027C75.2054 121.324 75.1156 121.663 75.1075 122.01C75.0994 122.357 75.1731 122.701 75.3215 123.007C75.4698 123.313 75.6876 123.571 75.9533 123.755V125.896C75.9533 126.035 75.978 126.172 76.0258 126.3C76.0737 126.428 76.1438 126.545 76.2322 126.643C76.3206 126.741 76.4256 126.819 76.5411 126.872C76.6566 126.925 76.7804 126.952 76.9055 126.952C77.158 126.952 77.4002 126.841 77.5787 126.643C77.7573 126.445 77.8576 126.176 77.8576 125.896V123.755C78.1165 123.576 78.33 123.327 78.4781 123.031C78.6262 122.735 78.7039 122.403 78.704 122.064Z" fill="#3F3D56"/>
</svg>
