<svg width="200" height="200" viewBox="0 0 200 200" fill="none" xmlns="http://www.w3.org/2000/svg">
<path d="M153.029 163.506C149.133 167.666 144.668 171.258 139.767 174.177C139.654 174.246 139.54 174.31 139.425 174.377L131.49 167.373C131.574 167.296 131.666 167.209 131.765 167.114C137.678 161.516 167.029 122.37 168.985 112.838C168.85 113.632 170.75 144.776 153.029 163.506Z" fill="#699CFF"/>
<path d="M141.298 175.528C141.148 175.564 140.995 175.597 140.842 175.628L134.889 170.373C135.005 170.333 135.141 170.285 135.297 170.231C137.851 169.329 145.458 166.606 153.029 163.505C161.163 160.172 169.259 156.405 171 153.992C170.627 154.553 159.122 171.553 141.298 175.528Z" fill="#699CFF"/>
<path d="M67.2882 50.9488V78.5458C62.8911 79.6994 58.2873 79.8318 53.8309 78.9326C49.3744 78.0335 45.1842 76.1269 41.5826 73.3595C37.981 70.592 35.064 67.0375 33.056 62.9694C31.048 58.9013 30.0025 54.428 30 49.8937C30 49.0844 30.0326 48.2835 30.0978 47.491H46.4123C47.1945 47.4918 47.9648 47.3005 48.6554 46.9341C49.3459 46.5677 49.9355 46.0374 50.3719 45.3901C50.8084 44.7428 51.0784 43.9982 51.1581 43.2222C51.2378 42.4462 51.1247 41.6626 50.8289 40.9404H57.2488C58.567 40.94 59.8724 41.1985 61.0904 41.7012C62.3085 42.204 63.4152 42.9411 64.3475 43.8705C65.2798 44.7999 66.0194 45.9034 66.5239 47.1179C67.0285 48.3324 67.2882 49.6342 67.2882 50.9488Z" fill="#699CFF"/>
<path d="M142.102 57.8196H141.221V33.8645C141.221 32.0438 140.859 30.2409 140.156 28.5588C139.454 26.8767 138.424 25.3483 137.126 24.0608C135.828 22.7734 134.286 21.7521 132.59 21.0554C130.894 20.3586 129.076 20 127.24 20H76.0642C72.3563 20 68.8004 21.4607 66.1785 24.0608C63.5567 26.6609 62.0837 30.1874 62.0837 33.8645V165.284C62.0837 168.961 63.5567 172.487 66.1785 175.088C68.8003 177.688 72.3563 179.148 76.0641 179.148H127.24C130.948 179.148 134.504 177.688 137.126 175.088C139.748 172.487 141.221 168.961 141.221 165.284V74.8712H142.102L142.102 57.8196Z" fill="#111111"/>
<path d="M138.245 33.9618V165.188C138.245 167.934 137.145 170.568 135.187 172.509C133.229 174.451 130.573 175.542 127.804 175.542H76.3823C73.6132 175.542 70.9575 174.451 68.9995 172.509C67.0415 170.568 65.9415 167.934 65.9414 165.188V33.9618C65.9415 31.2157 67.0415 28.582 68.9995 26.6402C70.9576 24.6984 73.6132 23.6075 76.3823 23.6074H82.6203C82.3138 24.3544 82.1971 25.1647 82.2804 25.9669C82.3638 26.7691 82.6446 27.5388 83.0983 28.2081C83.5519 28.8774 84.1645 29.4259 84.882 29.8054C85.5996 30.1849 86.4002 30.3836 87.2134 30.3842H116.532C117.345 30.3836 118.146 30.1849 118.863 29.8054C119.581 29.4259 120.193 28.8774 120.647 28.2081C121.101 27.5388 121.381 26.7691 121.465 25.9669C121.548 25.1647 121.431 24.3544 121.125 23.6074H127.804C130.573 23.6075 133.229 24.6984 135.187 26.6402C137.145 28.582 138.245 31.2157 138.245 33.9618Z" fill="white"/>
<path d="M79.1232 35.7788C78.1966 35.7788 77.279 35.9598 76.4229 36.3115C75.5668 36.6631 74.789 37.1786 74.1337 37.8284C73.4785 38.4781 72.9588 39.2496 72.6041 40.0986C72.2495 40.9476 72.067 41.8575 72.067 42.7764C72.067 43.6954 72.2495 44.6053 72.6041 45.4543C72.9587 46.3033 73.4785 47.0748 74.1337 47.7245C74.7889 48.3743 75.5668 48.8898 76.4229 49.2415C77.279 49.5931 78.1965 49.7741 79.1231 49.7741H79.1232C80.9946 49.7741 82.7893 49.0369 84.1126 47.7246C85.4359 46.4123 86.1793 44.6324 86.1793 42.7765C86.1793 40.9206 85.4359 39.1407 84.1126 37.8284C82.7893 36.5161 80.9946 35.7788 79.1232 35.7788Z" fill="#F2F2F2"/>
<path d="M130.355 48.68H93.3104C92.8426 48.68 92.3939 48.4957 92.0631 48.1676C91.7323 47.8395 91.5464 47.3945 91.5464 46.9306C91.5464 46.4666 91.7323 46.0216 92.0631 45.6935C92.3939 45.3655 92.8426 45.1812 93.3104 45.1812H130.355C130.823 45.1812 131.272 45.3655 131.603 45.6935C131.933 46.0216 132.119 46.4666 132.119 46.9306C132.119 47.3945 131.933 47.8395 131.603 48.1676C131.272 48.4957 130.823 48.68 130.355 48.68Z" fill="#F2F2F2"/>
<path d="M104.997 41.2454H93.3104C92.8426 41.2454 92.3939 41.0611 92.0631 40.733C91.7323 40.4049 91.5464 39.96 91.5464 39.496C91.5464 39.032 91.7323 38.5871 92.0631 38.259C92.3939 37.9309 92.8426 37.7466 93.3104 37.7466H104.997C105.465 37.7466 105.914 37.9309 106.245 38.259C106.575 38.5871 106.761 39.032 106.761 39.496C106.761 39.96 106.575 40.4049 106.245 40.733C105.914 41.0611 105.465 41.2454 104.997 41.2454Z" fill="#F2F2F2"/>
<path d="M79.1232 65.0806C78.1966 65.0806 77.279 65.2616 76.4229 65.6132C75.5668 65.9649 74.789 66.4803 74.1337 67.1301C73.4785 67.7799 72.9588 68.5513 72.6041 69.4003C72.2495 70.2493 72.067 71.1593 72.067 72.0782C72.067 72.9972 72.2495 73.9071 72.6041 74.7561C72.9587 75.6051 73.4785 76.3765 74.1337 77.0263C74.7889 77.6761 75.5668 78.1916 76.4229 78.5432C77.279 78.8949 78.1965 79.0759 79.1231 79.0759H79.1232C80.9946 79.0759 82.7893 78.3387 84.1126 77.0263C85.4359 75.714 86.1793 73.9341 86.1793 72.0782C86.1793 70.2223 85.4359 68.4425 84.1126 67.1301C82.7893 65.8178 80.9946 65.0806 79.1232 65.0806Z" fill="#F2F2F2"/>
<path d="M130.355 77.9822H93.3104C92.8426 77.9822 92.3939 77.7979 92.0631 77.4698C91.7323 77.1418 91.5464 76.6968 91.5464 76.2328C91.5464 75.7688 91.7323 75.3239 92.0631 74.9958C92.3939 74.6677 92.8426 74.4834 93.3104 74.4834H130.355C130.823 74.4834 131.272 74.6677 131.603 74.9958C131.933 75.3239 132.119 75.7688 132.119 76.2328C132.119 76.6968 131.933 77.1418 131.603 77.4698C131.272 77.7979 130.823 77.9822 130.355 77.9822Z" fill="#F2F2F2"/>
<path d="M104.997 70.5477H93.3104C92.8426 70.5477 92.3939 70.3634 92.0631 70.0353C91.7323 69.7072 91.5464 69.2622 91.5464 68.7982C91.5464 68.3343 91.7323 67.8893 92.0631 67.5612C92.3939 67.2331 92.8426 67.0488 93.3104 67.0488H104.997C105.465 67.0488 105.914 67.2331 106.245 67.5612C106.575 67.8893 106.761 68.3343 106.761 68.7982C106.761 69.2622 106.575 69.7072 106.245 70.0353C105.914 70.3634 105.465 70.5477 104.997 70.5477Z" fill="#F2F2F2"/>
<path d="M79.1232 123.686C77.2518 123.686 75.457 124.423 74.1337 125.735C72.8104 127.047 72.067 128.827 72.067 130.683C72.067 132.539 72.8104 134.319 74.1337 135.631C75.457 136.944 77.2517 137.681 79.1231 137.681H79.1232C80.9946 137.681 82.7893 136.944 84.1126 135.631C85.4359 134.319 86.1793 132.539 86.1793 130.683C86.1793 128.827 85.4359 127.047 84.1126 125.735C82.7893 124.423 80.9946 123.686 79.1232 123.686Z" fill="#F2F2F2"/>
<path d="M130.355 136.588H93.3104C92.8426 136.588 92.3939 136.403 92.0631 136.075C91.7323 135.747 91.5464 135.302 91.5464 134.838C91.5464 134.374 91.7323 133.929 92.0631 133.601C92.3939 133.273 92.8426 133.089 93.3104 133.089H130.355C130.823 133.089 131.272 133.273 131.603 133.601C131.933 133.929 132.119 134.374 132.119 134.838C132.119 135.302 131.933 135.747 131.603 136.075C131.272 136.403 130.823 136.588 130.355 136.588Z" fill="#F2F2F2"/>
<path d="M104.997 129.152H93.3104C92.8426 129.152 92.3939 128.968 92.0631 128.64C91.7323 128.312 91.5464 127.867 91.5464 127.403C91.5464 126.939 91.7323 126.494 92.0631 126.166C92.3939 125.838 92.8426 125.653 93.3104 125.653H104.997C105.465 125.653 105.914 125.838 106.245 126.166C106.575 126.494 106.761 126.939 106.761 127.403C106.761 127.867 106.575 128.312 106.245 128.64C105.914 128.968 105.465 129.152 104.997 129.152Z" fill="#F2F2F2"/>
<path d="M79.1232 152.989C78.1966 152.989 77.279 153.17 76.4229 153.521C75.5668 153.873 74.789 154.389 74.1337 155.038C73.4785 155.688 72.9588 156.46 72.6041 157.309C72.2495 158.158 72.067 159.067 72.067 159.986C72.067 160.905 72.2495 161.815 72.6041 162.664C72.9587 163.513 73.4785 164.285 74.1337 164.935C74.7889 165.584 75.5668 166.1 76.4229 166.451C77.279 166.803 78.1965 166.984 79.1231 166.984H79.1232C80.9946 166.984 82.7893 166.247 84.1126 164.935C85.4359 163.622 86.1793 161.842 86.1793 159.986C86.1793 158.131 85.4359 156.351 84.1126 155.038C82.7893 153.726 80.9946 152.989 79.1232 152.989Z" fill="#F2F2F2"/>
<path d="M130.355 165.891H93.3104C92.8426 165.891 92.3939 165.707 92.0631 165.379C91.7323 165.05 91.5464 164.605 91.5464 164.142C91.5464 163.678 91.7323 163.233 92.0631 162.904C92.3939 162.576 92.8426 162.392 93.3104 162.392H130.355C130.823 162.392 131.272 162.576 131.603 162.904C131.933 163.233 132.119 163.678 132.119 164.142C132.119 164.605 131.933 165.05 131.603 165.379C131.272 165.707 130.823 165.891 130.355 165.891Z" fill="#F2F2F2"/>
<path d="M104.997 158.455H93.3104C92.8426 158.455 92.3939 158.271 92.0631 157.943C91.7323 157.615 91.5464 157.17 91.5464 156.706C91.5464 156.242 91.7323 155.797 92.0631 155.469C92.3939 155.141 92.8426 154.957 93.3104 154.957H104.997C105.465 154.957 105.914 155.141 106.245 155.469C106.575 155.797 106.761 156.242 106.761 156.706C106.761 157.17 106.575 157.615 106.245 157.943C105.914 158.271 105.465 158.455 104.997 158.455Z" fill="#F2F2F2"/>
<path d="M144.65 118.219H59.5357C58.5711 118.218 57.6463 117.837 56.9642 117.161C56.2822 116.485 55.8985 115.567 55.8974 114.611V87.4949C55.8985 86.5383 56.2822 85.6212 56.9642 84.9447C57.6463 84.2683 58.5711 83.8878 59.5357 83.8867H144.65C145.615 83.8878 146.54 84.2683 147.222 84.9447C147.904 85.6212 148.288 86.5383 148.289 87.4949V114.611C148.288 115.567 147.904 116.485 147.222 117.161C146.54 117.837 145.615 118.218 144.65 118.219Z" fill="white"/>
<ellipse cx="7.04074" cy="6.99622" rx="7.04074" ry="6.99622" transform="matrix(1.00041 0 -0.00116196 0.999591 72.3702 94.3467)" fill="#FFBE55"/>
<path d="M78.7479 105.021C77.6506 104.925 76.5587 104.125 76.5592 103.707C76.5597 103.297 76.8945 103.104 77.2236 102.856C77.5527 102.608 79.0531 104.112 79.951 103.81C80.849 103.507 80.3094 102.705 79.5022 102.183C78.5511 101.567 77.8648 101.11 77.2266 100.13C76.8825 99.6465 76.3329 98.288 77.4731 97.6848C77.8297 97.4961 77.9652 97.3768 79.0155 97.4087L79.0384 96.694C79.2815 96.4183 80.2949 96.4313 80.5756 96.7406L80.5527 97.4553C81.1972 97.6101 82.7327 98.0419 82.8835 98.5057C83.0633 98.6969 83.1979 99.2521 82.8822 99.6331C82.3584 100.265 78.7582 98.1509 79.0419 99.6331C79.2744 100.848 83.5467 102.102 82.3348 103.958C82.0788 104.583 80.9903 105.12 80.3087 105.069L80.2864 105.766C79.9464 106.164 78.9566 106.104 78.747 105.788L78.7479 105.021Z" fill="white"/>
<path d="M130.355 106.957H93.3099C92.842 106.957 92.3933 106.773 92.0625 106.444C91.7317 106.116 91.5458 105.671 91.5458 105.207C91.5458 104.743 91.7317 104.298 92.0625 103.97C92.3933 103.642 92.842 103.458 93.3099 103.458H130.355C130.822 103.458 131.271 103.642 131.602 103.97C131.933 104.298 132.119 104.743 132.119 105.207C132.119 105.671 131.933 106.116 131.602 106.444C131.271 106.773 130.822 106.957 130.355 106.957Z" fill="#699CFF"/>
<path d="M104.997 99.5218H93.3099C92.842 99.5218 92.3933 99.3375 92.0625 99.0094C91.7317 98.6813 91.5458 98.2363 91.5458 97.7724C91.5458 97.3084 91.7317 96.8634 92.0625 96.5353C92.3933 96.2073 92.842 96.0229 93.3099 96.0229H104.997C105.464 96.0229 105.913 96.2073 106.244 96.5353C106.575 96.8634 106.761 97.3084 106.761 97.7724C106.761 98.2363 106.575 98.6813 106.244 99.0094C105.913 99.3375 105.464 99.5218 104.997 99.5218Z" fill="#699CFF"/>
<rect x="56.2115" y="83.8332" width="91.7631" height="34.2727" stroke="#2C3131" stroke-width="0.628217"/>
<ellipse cx="7.04074" cy="6.99622" rx="7.04074" ry="6.99622" transform="matrix(1.00041 0 -0.00116196 0.999591 72.3701 93.6479)" fill="#FFBE55"/>
<path d="M78.7473 104.323C77.65 104.226 76.5582 103.426 76.5586 103.008C76.5591 102.599 76.894 102.405 77.223 102.157C77.5521 101.909 79.0525 103.413 79.9505 103.111C80.8484 102.808 80.3089 102.006 79.5016 101.484C78.5505 100.869 77.8642 100.411 77.2261 99.4311C76.8819 98.9477 76.3323 97.5893 77.4726 96.9861C77.8292 96.7974 77.9647 96.678 79.015 96.7099L79.0379 95.9952C79.281 95.7196 80.2944 95.7326 80.575 96.0419L80.5521 96.7566C81.1966 96.9114 82.7322 97.3431 82.8829 97.807C83.0628 97.9981 83.1974 98.5534 82.8817 98.9344C82.3579 99.5664 78.7576 97.4522 79.0414 98.9344C79.2739 100.149 83.5461 101.403 82.3342 103.259C82.0782 103.884 80.9897 104.421 80.3082 104.37L80.2858 105.068C79.9458 105.465 78.9561 105.405 78.7465 105.089L78.7473 104.323Z" fill="white"/>
<path d="M163.188 59.4553L153.556 52.1089L146.189 61.7142L155.821 69.0605L163.188 59.4553Z" fill="#699CFF"/>
</svg>
