<svg width="200" height="200" viewBox="0 0 200 200" fill="none" xmlns="http://www.w3.org/2000/svg">
<path d="M153.965 76.9688H45.6144V169.684H153.965V76.9688Z" fill="white"/>
<path d="M154.28 170H45.2996V76.6523H154.28V170ZM45.9295 169.367H153.65V77.2852H45.9295V169.367Z" fill="#2C3131"/>
<path d="M113.333 95.0049H86.2455V169.683H113.333V95.0049Z" fill="#699CFF"/>
<path d="M113.333 95.0049H86.2455V169.683H113.333V95.0049Z" fill="#699CFF"/>
<path d="M160.264 68.4248H39.3151V95.0052H160.264V68.4248Z" fill="white"/>
<path d="M160.579 95.3221H39V68.1089H160.579V95.3221ZM39.6299 94.6892H159.949V68.7418H39.6299V94.6892Z" fill="#2C3131"/>
<path d="M113.333 65.8936H86.2455V94.689H113.333V65.8936Z" fill="#699CFF"/>
<path d="M96.8893 40.7865C104.04 51.435 97.3027 68.5616 97.3027 68.5616C97.3027 68.5616 78.9729 68.4235 71.8226 57.775C64.6723 47.1266 71.4092 30 71.4092 30C71.4092 30 89.739 30.1381 96.8893 40.7865Z" fill="#699CFF"/>
<path d="M100.17 40.7865C93.0195 51.435 99.7565 68.5616 99.7565 68.5616C99.7565 68.5616 118.086 68.4235 125.237 57.775C132.387 47.1266 125.65 30 125.65 30C125.65 30 107.32 30.1381 100.17 40.7865Z" fill="#699CFF"/>
<ellipse cx="21.871" cy="22.016" rx="21.871" ry="22.016" transform="matrix(1.00041 0 -0.0011555 0.999591 78.2513 103.261)" fill="#FFBE55"/>
<path d="M98.0619 136.85C94.6533 136.546 91.2616 134.03 91.2631 132.713C91.2645 131.425 92.3047 130.816 93.3269 130.036C94.3491 129.257 99.0099 133.989 101.799 133.037C104.589 132.085 102.913 129.56 100.405 127.917C97.4506 125.982 95.3186 124.542 93.3364 121.457C92.2672 119.936 90.5601 115.662 94.1021 113.763C95.2098 113.17 95.6306 112.794 98.8933 112.894L98.9645 110.645C99.7196 109.778 102.868 109.819 103.739 110.792L103.668 113.041C105.67 113.528 110.44 114.887 110.908 116.347C111.467 116.948 111.885 118.696 110.905 119.894C109.278 121.883 98.0939 115.23 98.9753 119.894C99.6976 123.717 112.969 127.663 109.204 133.504C108.409 135.472 105.028 137.16 102.91 137L102.841 139.194C101.785 140.445 98.7104 140.257 98.0593 139.263L98.0619 136.85Z" fill="white"/>
</svg>
