<svg width="17" height="17" viewBox="0 0 17 17" fill="none" xmlns="http://www.w3.org/2000/svg">
<g id="btc" clip-path="url(#clip0_2_6305)">
<g id="Group">
<path id="Vector" d="M8.84357 16.5282C13.3301 16.5282 16.9672 12.8911 16.9672 8.4046C16.9672 3.91806 13.3301 0.281006 8.84357 0.281006C4.35703 0.281006 0.719971 3.91806 0.719971 8.4046C0.719971 12.8911 4.35703 16.5282 8.84357 16.5282Z" fill="#F7931A"/>
<path id="Vector_2" d="M12.4937 7.39935C12.6531 6.33515 11.8423 5.76295 10.7344 5.38114L11.0939 3.9392L10.2165 3.72088L9.86621 5.12474C9.63571 5.06686 9.39911 5.01304 9.16302 4.95922L9.51588 3.54622L8.63854 3.32739L8.27907 4.76882C8.08816 4.72516 7.90031 4.68251 7.71854 4.63681L7.71955 4.63225L6.50914 4.33015L6.27559 5.26741C6.27559 5.26741 6.927 5.41668 6.91329 5.42582C7.2687 5.51467 7.33267 5.74975 7.32201 5.93659L6.91278 7.57908C6.93715 7.58517 6.96863 7.59431 7.00417 7.60802L6.91126 7.58517L6.33753 9.88618C6.29386 9.99382 6.18369 10.1558 5.9349 10.0943C5.94404 10.107 5.2972 9.93543 5.2972 9.93543L4.86157 10.9397L6.00395 11.2245C6.21618 11.2779 6.42435 11.3337 6.62896 11.386L6.26594 12.8442L7.14278 13.0625L7.50225 11.6206C7.74189 11.6851 7.97443 11.745 8.20189 11.8018L7.84344 13.2377L8.72079 13.456L9.08381 12.0009C10.5806 12.2842 11.7057 12.1699 12.1794 10.8163C12.5612 9.72676 12.1606 9.09768 11.3731 8.68795C11.9469 8.55594 12.3784 8.1787 12.4937 7.39935ZM10.4882 10.2111C10.2176 11.3012 8.38214 10.7117 7.78708 10.564L8.26942 8.6321C8.86447 8.78086 10.772 9.07484 10.4882 10.2111ZM10.7598 7.38361C10.5125 8.37519 8.98531 7.87102 8.49028 7.74764L8.92692 5.99599C9.42196 6.11937 11.0177 6.34937 10.7598 7.38361Z" fill="white"/>
</g>
</g>
<defs>
<clipPath id="clip0_2_6305">
<rect width="16.2472" height="16.2472" fill="white" transform="translate(0.719971 0.281006)"/>
</clipPath>
</defs>
</svg>
