<svg width="19" height="19" viewBox="0 0 19 19" fill="none" xmlns="http://www.w3.org/2000/svg">
<path d="M6.24366 4.96517H4.76379V6.44505H6.24366V4.96517ZM2.54398 4.5952C2.54398 4.1046 2.73887 3.63408 3.08578 3.28717C3.4327 2.94025 3.90321 2.74536 4.39382 2.74536H6.61363C7.10424 2.74536 7.57476 2.94025 7.92167 3.28717C8.26858 3.63408 8.46347 4.1046 8.46347 4.5952V6.81502C8.46347 7.30563 8.26858 7.77614 7.92167 8.12305C7.57476 8.46997 7.10424 8.66486 6.61363 8.66486H4.39382C3.90321 8.66486 3.4327 8.46997 3.08578 8.12305C2.73887 7.77614 2.54398 7.30563 2.54398 6.81502V4.5952ZM4.39382 4.22524C4.2957 4.22524 4.20159 4.26421 4.13221 4.3336C4.06283 4.40298 4.02385 4.49708 4.02385 4.5952V6.81502C4.02385 6.91314 4.06283 7.00724 4.13221 7.07662C4.20159 7.14601 4.2957 7.18499 4.39382 7.18499H6.61363C6.71175 7.18499 6.80586 7.14601 6.87524 7.07662C6.94462 7.00724 6.9836 6.91314 6.9836 6.81502V4.5952C6.9836 4.49708 6.94462 4.40298 6.87524 4.3336C6.80586 4.26421 6.71175 4.22524 6.61363 4.22524H4.39382ZM4.76379 12.3645H6.24366V13.8444H4.76379V12.3645ZM2.54398 11.9946C2.54398 11.504 2.73887 11.0335 3.08578 10.6865C3.4327 10.3396 3.90321 10.1447 4.39382 10.1447H6.61363C7.10424 10.1447 7.57476 10.3396 7.92167 10.6865C8.26858 11.0335 8.46347 11.504 8.46347 11.9946V14.2144C8.46347 14.705 8.26858 15.1755 7.92167 15.5224C7.57476 15.8693 7.10424 16.0642 6.61363 16.0642H4.39382C3.90321 16.0642 3.4327 15.8693 3.08578 15.5224C2.73887 15.1755 2.54398 14.705 2.54398 14.2144V11.9946ZM4.39382 11.6246C4.2957 11.6246 4.20159 11.6636 4.13221 11.733C4.06283 11.8024 4.02385 11.8965 4.02385 11.9946V14.2144C4.02385 14.3125 4.06283 14.4066 4.13221 14.476C4.20159 14.5454 4.2957 14.5844 4.39382 14.5844H6.61363C6.71175 14.5844 6.80586 14.5454 6.87524 14.476C6.94462 14.4066 6.9836 14.3125 6.9836 14.2144V11.9946C6.9836 11.8965 6.94462 11.8024 6.87524 11.733C6.80586 11.6636 6.71175 11.6246 6.61363 11.6246H4.39382ZM13.643 4.96517H12.1632V6.44505H13.643V4.96517ZM11.7932 2.74536C11.3026 2.74536 10.8321 2.94025 10.4852 3.28717C10.1382 3.63408 9.94335 4.1046 9.94335 4.5952V6.81502C9.94335 7.30563 10.1382 7.77614 10.4852 8.12305C10.8321 8.46997 11.3026 8.66486 11.7932 8.66486H14.013C14.5036 8.66486 14.9741 8.46997 15.321 8.12305C15.668 7.77614 15.8628 7.30563 15.8628 6.81502V4.5952C15.8628 4.1046 15.668 3.63408 15.321 3.28717C14.9741 2.94025 14.5036 2.74536 14.013 2.74536H11.7932ZM11.4232 4.5952C11.4232 4.49708 11.4622 4.40298 11.5316 4.3336C11.601 4.26421 11.6951 4.22524 11.7932 4.22524H14.013C14.1111 4.22524 14.2052 4.26421 14.2746 4.3336C14.344 4.40298 14.383 4.49708 14.383 4.5952V6.81502C14.383 6.91314 14.344 7.00724 14.2746 7.07662C14.2052 7.14601 14.1111 7.18499 14.013 7.18499H11.7932C11.6951 7.18499 11.601 7.14601 11.5316 7.07662C11.4622 7.00724 11.4232 6.91314 11.4232 6.81502V4.5952ZM9.94335 10.1447H11.9782V12.1796H9.94335V10.1447ZM13.828 12.1796H11.9782V14.0294H9.94335V16.0642H11.9782V14.0294H13.828V16.0642H15.8628V14.0294H13.828V12.1796ZM13.828 12.1796V10.1447H15.8628V12.1796H13.828Z" fill="black"/>
</svg>
