<svg width="19" height="19" viewBox="0 0 19 19" fill="none" xmlns="http://www.w3.org/2000/svg">
<path d="M4.88463 2.08583L18.1128 8.66822C18.2465 8.73464 18.3594 8.83909 18.4384 8.96948C18.5175 9.09988 18.5594 9.25088 18.5594 9.40504C18.5594 9.55919 18.5175 9.7102 18.4384 9.84059C18.3594 9.97098 18.2465 10.0754 18.1128 10.1419L4.88463 16.7242C4.74902 16.7918 4.59761 16.8175 4.44841 16.7981C4.29921 16.7787 4.1585 16.7151 4.04302 16.6149C3.92754 16.5147 3.84216 16.3821 3.79703 16.2329C3.7519 16.0837 3.74893 15.9241 3.78846 15.7732L5.1119 10.7252C5.1281 10.6633 5.16145 10.6078 5.20778 10.5655C5.25411 10.5232 5.31138 10.4961 5.37245 10.4874L11.7825 9.5814C11.8093 9.57744 11.8346 9.56633 11.8561 9.54917C11.8775 9.532 11.8944 9.50935 11.9049 9.48342L11.9162 9.44292C11.9212 9.40646 11.9141 9.36932 11.8962 9.33754C11.8783 9.30576 11.8506 9.2812 11.8176 9.26786L11.7831 9.25807L5.37935 8.35206C5.3184 8.3433 5.26127 8.31609 5.21505 8.27382C5.16884 8.23154 5.13559 8.17607 5.11943 8.1143L3.78846 3.03755C3.74877 2.88657 3.75162 2.7269 3.79668 2.57756C3.84174 2.42822 3.92711 2.29551 4.04262 2.19522C4.15813 2.09493 4.2989 2.0313 4.44819 2.01191C4.59747 1.99251 4.74897 2.01817 4.88463 2.08583Z" fill="black"/>
</svg>
