<svg width="156" height="38" viewBox="0 0 156 38" fill="none" xmlns="http://www.w3.org/2000/svg">
<path d="M18.3708 7.43224V2.68224H2.87076V35.3175H18.3708V30.5675C15.1956 30.5675 12.1504 29.3487 9.90527 27.1794C7.66008 25.01 6.39875 22.0678 6.39875 18.9999C6.39875 15.932 7.66008 12.9896 9.90527 10.8203C12.1504 8.65097 15.1956 7.43224 18.3708 7.43224Z" fill="#111111"/>
<path d="M18.3721 7.43219V30.5675C21.5473 30.5675 24.5925 29.3487 26.8377 27.1793C29.0829 25.01 30.3442 22.0678 30.3442 18.9998C30.3442 15.9319 29.0829 12.9896 26.8377 10.8203C24.5925 8.65093 21.5473 7.43219 18.3721 7.43219Z" fill="#2752E7"/>
<path d="M45.8622 29.084C45.0757 29.084 44.3392 28.9259 43.6529 28.6098C42.9743 28.2936 42.4191 27.7731 41.9872 27.0482C41.5785 26.3464 41.3742 25.4365 41.3742 24.3183V16.4989H44.9369V23.3004C44.9369 24.2104 45.1644 24.8581 45.6193 25.2437C46.0743 25.6293 46.6257 25.8221 47.2734 25.8221C48.2297 25.6987 48.9275 25.344 49.3671 24.7579C49.8066 24.1718 50.0264 23.4701 50.0264 22.6527V16.4989H53.566V28.9452H50.0264V26.7474C49.1165 28.3052 47.7284 29.084 45.8622 29.084ZM60.5793 28.9452H57.0166V16.4989H60.5793V18.743C61.4584 17.2007 62.831 16.4064 64.6972 16.3601V19.7146L64.1882 19.6915C63.5945 19.6915 63.02 19.7956 62.4647 20.0038C61.9172 20.2043 61.4661 20.5474 61.1114 21.0333C60.7567 21.5191 60.5793 22.1591 60.5793 22.9534V28.9452Z" fill="#2752E7"/>
<path d="M74.0438 29.1997C71.607 29.1997 69.5828 28.4015 67.9711 26.8053C66.3594 25.209 65.5535 23.2079 65.5535 20.8019C65.5535 18.4576 66.3748 16.4874 68.0173 14.8911C69.6599 13.2948 71.715 12.4967 74.1826 12.4967C76.5886 12.4967 78.717 13.3989 80.5677 15.2034L78.4394 17.8176C77.1438 16.3987 75.7403 15.6892 74.2289 15.6892C72.8563 15.6892 71.6918 16.1558 70.7356 17.0889C69.7794 18.0219 69.3013 19.2442 69.3013 20.7557C69.3013 21.3957 69.4054 22.0203 69.6136 22.6295C69.8218 23.2387 70.1303 23.7862 70.539 24.2721C70.9477 24.7579 71.4605 25.1473 72.0774 25.4404C72.6943 25.7257 73.4115 25.8683 74.2289 25.8683C75.6787 25.8683 77.0821 25.2283 78.4394 23.9482L80.5908 26.2848C78.5704 28.228 76.3881 29.1997 74.0438 29.1997ZM86.2665 28.9452H82.7038V16.4989H86.2665V18.743C87.1456 17.2007 88.5183 16.4064 90.3844 16.3601V19.7146L89.8755 19.6915C89.2817 19.6915 88.7072 19.7956 88.152 20.0038C87.6045 20.2043 87.1533 20.5474 86.7986 21.0333C86.4439 21.5191 86.2665 22.1591 86.2665 22.9534V28.9452ZM94.3735 33.5952C93.0625 33.5952 91.9367 33.1942 90.9959 32.3922L92.4996 29.8243C93.024 30.2716 93.5638 30.4952 94.119 30.4952C94.8747 30.4952 95.4222 30.1251 95.7615 29.3848L96.1086 28.6907L90.9496 16.4989H94.628L97.8899 25.0586L100.828 16.4989H104.391L98.931 30.3333C98.0518 32.5079 96.5327 33.5952 94.3735 33.5952ZM109.629 33.4333H106.067V16.4989H109.629V18.3265C110.57 17.031 111.881 16.3833 113.562 16.3833C114.318 16.3833 115.047 16.5066 115.749 16.7534C116.45 16.9925 117.075 17.3703 117.622 17.887C118.17 18.4037 118.606 19.0668 118.929 19.8765C119.253 20.6862 119.415 21.6579 119.415 22.7915C119.415 24.6114 118.906 26.1151 117.888 27.3027C116.871 28.4902 115.452 29.084 113.632 29.084C111.904 29.084 110.57 28.4363 109.629 27.1407V33.4333ZM112.729 26.1228C113.747 26.1228 114.515 25.7874 115.031 25.1165C115.548 24.4456 115.806 23.632 115.806 22.6758C115.806 21.7659 115.552 20.9677 115.043 20.2814C114.534 19.5951 113.763 19.2519 112.729 19.2519C111.696 19.2519 110.921 19.5912 110.404 20.2698C109.888 20.9484 109.629 21.7504 109.629 22.6758C109.629 23.8325 109.934 24.6962 110.543 25.2668C111.153 25.8375 111.881 26.1228 112.729 26.1228ZM126.231 29.1071C125.12 29.1071 124.191 28.8025 123.443 28.1933C122.695 27.5841 122.321 26.6086 122.321 25.2668V19.5064H120.586V17.0542H122.321V13.6303H125.86V17.0542H129.238V19.5295H125.86V24.6654C125.86 25.6216 126.238 26.0997 126.994 26.0997C127.488 26.0997 128.066 25.9455 128.729 25.637L129.469 28.2512C128.482 28.8218 127.403 29.1071 126.231 29.1071ZM137.147 29.084C135.697 29.084 134.475 28.7987 133.48 28.228C132.439 27.6188 131.676 26.8323 131.19 25.8683C130.704 24.9044 130.461 23.8557 130.461 22.7221C130.461 21.334 130.758 20.1696 131.352 19.2288C131.992 18.2494 132.821 17.5323 133.839 17.0773C134.857 16.6146 135.959 16.3833 137.147 16.3833C139.044 16.3833 140.629 16.9231 141.901 18.0027C143.174 19.0823 143.81 20.6554 143.81 22.7221C143.81 23.5395 143.679 24.3299 143.416 25.0933C143.162 25.8491 142.761 26.5277 142.213 27.1292C141.674 27.7307 140.983 28.2088 140.143 28.5635C139.302 28.9105 138.304 29.084 137.147 29.084ZM137.147 26.1922C137.995 26.1922 138.724 25.903 139.333 25.3247C139.942 24.7463 140.247 23.8942 140.247 22.7683C140.247 21.6425 139.942 20.7904 139.333 20.212C138.724 19.6336 137.995 19.3445 137.147 19.3445C136.283 19.3445 135.547 19.6336 134.938 20.212C134.329 20.7904 134.024 21.6425 134.024 22.7683C134.024 23.8942 134.329 24.7463 134.938 25.3247C135.547 25.903 136.283 26.1922 137.147 26.1922Z" fill="#2C3131"/>
<path d="M150.317 15.3565C151.723 15.3565 152.862 14.2557 152.862 12.8977C152.862 11.5398 151.723 10.4389 150.317 10.4389C148.912 10.4389 147.772 11.5398 147.772 12.8977C147.772 14.2557 148.912 15.3565 150.317 15.3565Z" fill="#2C3131"/>
</svg>
